PathFileType	4	(X/Y/Z)	7_coords_data.trc
DataRate	CameraRate	NumFrames	NumMarkers	Units	OrigDataRate	OrigDataStartFrame	OrigNumFrames
30.0	30.0	9	21	m	30.0	32	53
Frame#	Time	THUMB_TIP	THUMB_IP	THUMB_MCP	THUMB_CMC	INDEX_TIP	INDEX_DIP	INDEX_PIP	INDEX_MCP	MIDDLE_TIP	MIDDLE_DIP	MIDDLE_PIP	MIDDLE_MCP	RING_TIP	RING_DIP	RING_PIP	RING_MCP	PINKY_TIP	PINKY_DIP	PINKY_PIP	PINKY_MCP	WRIST
X1	Y1	Z1	X2	Y2	Z2	X3	Y3	Z3	X4	Y4	Z4	X5	Y5	Z5	X6	Y6	Z6	X7	Y7	Z7	X8	Y8	Z8	X9	Y9	Z9	X10	Y10	Z10	X11	Y11	Z11	X12	Y12	Z12	X13	Y13	Z13	X14	Y14	Z14	X15	Y15	Z15	X16	Y16	Z16	X17	Y17	Z17	X18	Y18	Z18	X19	Y19	Z19	X20	Y20	Z20	X21	Y21	Z21
30	1.0333333333333288	0.47920606766886586	-0.02990745957378016	-0.17034923039962918	0.4857188964977761	-0.032685591118830404	-0.14848910583997238	0.47716871528540905	-0.03786949821062502	-0.11901298824454731	0.47631640790066926	-0.033576167621316655	-0.07462007344305188	0.5790804115492192	0.00018014083977213602	-0.14832913401008085	0.5642265012749896	0.00933243224329472	-0.14347146876532124	0.5412317158324648	0.01829439452939796	-0.1386826372340697	0.5065702422465814	0.0029926744849188003	-0.11923846827431461	0.5967102456907685	0.030109660756659662	-0.1284900863452505	0.5814829858294652	0.029169291629083882	-0.11873066715042935	0.5532772814778468	0.0335004625341504	-0.11280709131988509	0.5130796259903204	0.018335786148134803	-0.10054621841402878	0.593952439128934	0.03746786418596515	-0.1081092775724668	0.5805037417852158	0.034210785115335374	-0.09655402008140535	0.557211444190022	0.03775742199219323	-0.08848740873582506	0.5196951110861053	0.024590298126867416	-0.08114762443714596	0.5919121994764538	0.0347752439616944	-0.060564278529048776	0.5764491626091075	0.029092569545831504	-0.055916515376479126	0.555563211538614	0.031184763578372854	-0.05637672295045992	0.521055057565767	0.02112643097765765	-0.05936012799833312	0.4622830810018609	-0.023011742144276925	-0.051989820119430985
31	1.0666666666666622	0.4806913122059757	-0.031362434975442555	-0.17062370870380422	0.4862310806780497	-0.03416998721285036	-0.14850067510282539	0.4765217160003599	-0.03849481440672742	-0.11924586169889584	0.4756025192416349	-0.03393178484952886	-0.07488119288937034	0.5775671463528893	0.01256011909206678	-0.15744772460063272	0.5612430734873357	0.017418426428978284	-0.15128968149423871	0.5378490275368704	0.019996807426514107	-0.14245337013151171	0.507297156007855	0.0013639675946066632	-0.11936578645818141	0.5934062466050418	0.04641753150086714	-0.1336279854742164	0.5778711295796588	0.04210894796593734	-0.1253759404591801	0.5504919211505559	0.0373184633852367	-0.11661011173179758	0.5143475795658633	0.01624515207756605	-0.10093688478457752	0.5934279383248733	0.05183827992009582	-0.10898702784939296	0.5788048660318467	0.0457446624722474	-0.10038275082501757	0.5559552609254834	0.040728418841389336	-0.09184385011596041	0.5219232780375499	0.02138391288249275	-0.08172777064209247	0.5914982237764055	0.04614522541738697	-0.059999896407508024	0.5760731535920056	0.038976496388204884	-0.058082467422512885	0.5557901436582257	0.03355812247471479	-0.05831214362893	0.5236726463067163	0.01725130562487598	-0.06016620379559323	0.4622830810018609	-0.023011742144276925	-0.051989820119430985
32	1.0999999999999952	0.48223897118567793	-0.032878379543317515	-0.1708095356324013	0.4867299717190542	-0.03559288727802434	-0.14843851951852244	0.47588269497284963	-0.039029825345028746	-0.11946708455380528	0.47492326078823144	-0.03421038454601766	-0.07513039008488709	0.5734172288620356	0.020439172856555166	-0.16336493083361897	0.5568629311285962	0.02275095982208508	-0.1563927814104749	0.5344160054474869	0.021121144680007475	-0.14519059130900763	0.5078010414431484	1.9503912976559512e-05	-0.11950011560327278	0.5883343091560411	0.05545038896748411	-0.13696039392304293	0.5730400546092016	0.049379457813194305	-0.12939537093719844	0.5474516908419655	0.03974151629763589	-0.11930798906387385	0.5153798568536738	0.014397727637479929	-0.10127363956141577	0.5903450119867228	0.05897614949430652	-0.1101140121048062	0.5756360306535171	0.05152031275106539	-0.10283003197046048	0.5542004256308143	0.04217637089978021	-0.0942634943390438	0.523795688056115	0.018415054759989835	-0.0821940029529653	0.5894277821641292	0.05126557047526492	-0.06078700261276704	0.5742699451636246	0.04337221147515591	-0.059820120426804735	0.555316768371182	0.03433979982108082	-0.05988829803125484	0.5257987222015317	0.013637971131359672	-0.06088964224171689	0.4622830810018609	-0.023011742144276925	-0.051989820119430985
33	1.1333333333333284	0.48387674291246524	-0.03427294336191733	-0.17088573612123975	0.4872745802379847	-0.03677575687485657	-0.14829833640306161	0.4753416836370539	-0.0394029455526661	-0.11967100927734697	0.47432455690403474	-0.03440028151495034	-0.0753559011793774	0.5688210098573654	0.02592441396019296	-0.16742051247088463	0.5524217439696313	0.02651123135480582	-0.15975763287579903	0.5311904195427192	0.022094443262775987	-0.14704021650967714	0.5079876929706915	-0.0008289087318514854	-0.11965793196374985	0.5834334601761377	0.06123937640466903	-0.13914412013978095	0.5685304419998083	0.053954353523885	-0.13187579909139235	0.544569194927355	0.041398997938718596	-0.12103000567353295	0.5160452474335113	0.013062998843603846	-0.10154658976024655	0.587457239547803	0.062461481354665116	-0.11108557779507089	0.5728612428932113	0.05425847252233451	-0.10440220082262264	0.5525802598355294	0.04264714559782057	-0.09579762109633261	0.5251458575885188	0.016075240250145284	-0.08253081087143643	0.5878710864876292	0.05302213854731275	-0.0617303252162108	0.5728927913420268	0.04475934741872811	-0.06111635673444071	0.5548881559474542	0.0339595178722053	-0.061022521375662775	0.5273233805009776	0.010702840570728012	-0.0614624832834153	0.4622830810018609	-0.023011742144276925	-0.051989820119430985
34	1.1666666666666616	0.48569377569736366	-0.035517871732136164	-0.17082623872108005	0.4879716855674281	-0.03768356957521346	-0.1480639699528674	0.47503274429941017	-0.03965358267911889	-0.1198235229444855	0.4739092072910441	-0.03446926252220317	-0.07553187035507047	0.564356357631659	0.03028157010280197	-0.17047173624847767	0.5483220514442395	0.029488917361061517	-0.16208885328859501	0.5283165849542356	0.023130594190803655	-0.14825545638183746	0.5078092714968013	-0.0011005073095385898	-0.11986637557884827	0.5787939604096344	0.06572071169108207	-0.14078549071270569	0.5644296669171331	0.05739427519645057	-0.13355102267682673	0.5419646293396447	0.0427734150827892	-0.12210715592739352	0.5162271639256224	0.012403960917179324	-0.10182349134860191	0.5849993441548552	0.06459504401853267	-0.11196203155672801	0.5706031719057801	0.055885240446230444	-0.1054898181558217	0.5512285209537836	0.04290974305767914	-0.0967468583018588	0.5258540733480879	0.014684123919528336	-0.08281227302012706	0.5868613247601648	0.053638652084251226	-0.06270419309271547	0.5720112755283202	0.04514318999692246	-0.06215359184448954	0.5546003400269209	0.033413828147023095	-0.06184795388833786	0.5281784948069294	0.008862548783818425	-0.0619129754286023	0.4622830810018609	-0.023011742144276925	-0.051989820119430985
35	1.1999999999999948	0.48782224325887785	-0.03677444816723574	-0.17062118016033462	0.48890039335518604	-0.03844713624781804	-0.1477292665890556	0.47504132506917957	-0.039878433012771275	-0.11989587628506182	0.4737241491926075	-0.03443021658069423	-0.07564124957305107	0.5601168970466618	0.03410235087502311	-0.17305988386178273	0.5446471634464438	0.03205445140571461	-0.16386785198075154	0.5258556892649489	0.024300178033471842	-0.14907726120300574	0.507216655076123	-0.0008052949178344315	-0.12016467352222193	0.5743141622994845	0.06971375104748134	-0.1422611542212876	0.5606467328198219	0.060401655821892164	-0.134879673751354	0.5396972855448118	0.04410473960887906	-0.12284054044294668	0.5158712083015669	0.012469977313885217	-0.10215944330720073	0.5828920226193317	0.06639322003567949	-0.11294627274084834	0.5687943552974853	0.05725276477857755	-0.10641114812264352	0.5502203153647172	0.04333987760670799	-0.09737695805829572	0.5258905380137286	0.014360984139568767	-0.08312892305442521	0.5864395061755582	0.05392544580503922	-0.06360485731409915	0.5717267079801029	0.045204633628811	-0.06291131261708205	0.554643146442057	0.03301183839509192	-0.06236387443391067	0.5284003623616613	0.008269212350539679	-0.06231706493507261	0.4622830810018609	-0.023011742144276925	-0.051989820119430985
36	1.233333333333328	0.49053970276780007	-0.03821397354429934	-0.17017751040587203	0.4902233520542314	-0.0392374104218135	-0.1472242426824351	0.475437363102556	-0.04020670949411942	-0.1198517201456033	0.4737991454831262	-0.03430191483390943	-0.07566643251440042	0.556377082266694	0.03750310044496674	-0.17522176980590143	0.5416682583059156	0.03430923390408447	-0.16514954491713602	0.5239257970369141	0.02565753545399785	-0.14958153235782862	0.5061804653685898	3.629104631575064e-05	-0.12055927998171212	0.5700127374533	0.07353509071582065	-0.14367866063012352	0.5572853927482027	0.06320138173250378	-0.1359826125919582	0.5378721798951647	0.0454807153656972	-0.12339235047240849	0.5148949198303564	0.013295749291985626	-0.10260001054280454	0.5812627631685277	0.0680727751795186	-0.11410814303889727	0.5675745538425909	0.0585341682993461	-0.10727821593570874	0.5496648523789468	0.04404418708154778	-0.09781972679679274	0.5251533242790015	0.015206989279864525	-0.0835957383564081	0.5867183554529263	0.05395114149492686	-0.06449772957079547	0.5721330065500412	0.045044873132929486	-0.0635251138989128	0.5550936075477206	0.032805664984806526	-0.06270494041321739	0.5279424743583747	0.009063466791683239	-0.06279121029704693	0.4622830810018609	-0.023011742144276925	-0.051989820119430985
37	1.2666666666666608	0.49326454553905597	-0.03958295950400792	-0.16957911626083166	0.49153550390021894	-0.03985327142179129	-0.1466676050387783	0.4759622663726044	-0.04051861069503637	-0.11972597189303191	0.47410227175421327	-0.03407282184156146	-0.07562515301088446	0.5541264237400598	0.03991881707251366	-0.17599454504892859	0.5398007659329438	0.03620043129454287	-0.16555667478725167	0.5222818098889835	0.02731407083235604	-0.14986818824884168	0.5046416439475983	0.0013799556899818377	-0.12106051025594422	0.5665526892891877	0.07669099912065636	-0.14478237027376278	0.5547253724702184	0.0655456266057668	-0.13678891993188458	0.5361263850231414	0.04713640834469812	-0.1239597383929163	0.5131164479504063	0.014956892591428739	-0.10319511745262788	0.5806547002590651	0.06885260832551388	-0.11534136622286217	0.5671596501984723	0.05932902807788265	-0.1081174446335158	0.5490280109862664	0.045342422711757036	-0.09832977336754722	0.5234064261897529	0.0173868364792793	-0.08430335454756444	0.5879724152129072	0.052826200231592346	-0.06580620523688752	0.5732379155506984	0.044221677711562046	-0.064443593073924	0.5555737107630883	0.03292598999809959	-0.06335028282458544	0.5266441349987465	0.011386367576058154	-0.06343839077597047	0.4622830810018609	-0.023011742144276925	-0.051989820119430985
38	1.299999999999994	0.4961526173869294	-0.04074880033672379	-0.16881244479551633	0.4930208978287447	-0.040320853649083443	-0.14605262945704267	0.4766850168758515	-0.04087252142596298	-0.11956386474147207	0.4744297001007666	-0.033825296448234066	-0.07557363666343997	0.5531311192212638	0.041706714405636336	-0.17543822608851206	0.5385947312831746	0.03794754525723132	-0.16531093261853452	0.520711765802545	0.029053988890334836	-0.15004286025273006	0.502986242801184	0.002875210228980629	-0.12151018641854372	0.5647607900251697	0.07854030548593227	-0.14509324265574192	0.552969157370756	0.06737101141425672	-0.13708048599627742	0.5340387598317835	0.049231607607225336	-0.12435210713084754	0.5109738150580891	0.017013750876035183	-0.10370831989994078	0.5814691615655057	0.06776339108001006	-0.115724432146046	0.5671771204862472	0.05952305300878735	-0.10845570527947923	0.5477591710406096	0.04729038760659332	-0.09878693516717274	0.521054185971195	0.020304772796905346	-0.08488221655133954	0.5897035395517847	0.04983769732733545	-0.06688089277035802	0.5740960668644015	0.0429927696705843	-0.06528284343243673	0.5552035559256377	0.03390926257937188	-0.06411026151521748	0.5248029763334261	0.014502597034609765	-0.06384654975713377	0.4622830810018609	-0.023011742144276925	-0.051989820119430985
